<?xml version="1.0" standalone="no"?>
<!DOCTYPE svg PUBLIC "-//W3C//DTD SVG 20010904//EN"
 "http://www.w3.org/TR/2001/REC-SVG-20010904/DTD/svg10.dtd">
<svg version="1.0" xmlns="http://www.w3.org/2000/svg"
 width="1460.000000pt" height="1409.000000pt" viewBox="0 0 1460.000000 1409.000000"
 preserveAspectRatio="xMidYMid meet">
<metadata>
Created by potrace 1.12, written by Peter Selinger 2001-2015
</metadata>
<g transform="translate(0.000000,1409.000000) scale(0.100000,-0.100000)"
fill="#000000" stroke="none">
<path d="M7140 14080 c0 -6 34 -50 76 -98 138 -157 227 -303 298 -487 125
-326 67 -602 -151 -710 -50 -25 -73 -30 -160 -33 -137 -6 -329 27 -418 71 -97
47 -333 216 -482 345 -199 171 -239 203 -246 196 -3 -3 -8 3 -11 14 -4 11 -32
38 -64 60 -169 118 -319 180 -490 201 -82 10 -364 -2 -527 -24 -174 -23 -178
-37 -18 -61 333 -50 604 -188 783 -399 139 -164 214 -450 139 -531 -13 -14
-42 -35 -64 -47 -59 -31 -247 -34 -387 -7 -127 26 -120 24 -193 50 -84 29
-348 97 -450 115 -78 13 -324 13 -346 -1 -4 -2 -47 -16 -95 -29 -61 -18 -122
-47 -206 -97 -117 -70 -135 -84 -125 -95 3 -3 75 -7 159 -8 211 -5 394 -32
489 -74 108 -46 169 -124 184 -232 14 -95 -25 -163 -139 -243 -129 -92 -213
-123 -535 -202 -353 -86 -464 -138 -619 -288 -91 -88 -182 -208 -182 -239 0
-12 21 -6 98 28 203 90 375 135 512 135 126 0 230 -63 285 -173 54 -108 27
-176 -165 -415 -69 -86 -137 -178 -152 -203 -53 -91 -108 -258 -144 -437 -19
-97 -39 -195 -45 -218 -21 -81 -3 -66 76 67 129 215 242 319 353 322 l47 2 1
-175 c0 -96 4 -205 8 -241 7 -60 5 -72 -17 -115 -59 -117 -102 -383 -94 -584
4 -129 31 -280 48 -280 8 0 11 15 28 126 14 91 28 136 54 172 32 42 76 77 86
66 5 -5 21 -40 36 -79 49 -128 97 -229 146 -311 27 -45 49 -85 49 -89 0 -4
-15 -26 -32 -49 -117 -150 -187 -209 -241 -204 -29 3 -32 6 -35 40 -4 42 38
130 117 248 36 53 47 76 37 78 -26 6 -200 -58 -268 -99 -93 -55 -198 -140
-296 -242 -87 -90 -162 -147 -194 -147 -24 0 -58 35 -58 59 0 41 134 200 237
282 35 28 63 55 63 61 0 7 -39 9 -117 6 -133 -6 -205 -27 -275 -81 -46 -35
-186 -226 -292 -397 -71 -114 -122 -170 -156 -170 -17 0 -20 7 -20 43 0 50 22
118 74 229 20 42 36 82 36 88 0 14 -83 3 -120 -15 -74 -38 -152 -110 -205
-189 -62 -94 -128 -228 -145 -299 -16 -61 -69 -112 -108 -102 -22 5 -33 -2
-81 -55 -31 -34 -100 -107 -154 -162 -162 -166 -279 -329 -455 -634 -136 -236
-339 -770 -397 -1044 -43 -205 -68 -526 -62 -795 6 -246 16 -330 72 -590 67
-313 144 -544 255 -770 121 -246 257 -436 438 -609 58 -55 192 -186 297 -289
l192 -188 -26 -34 c-43 -56 -108 -145 -173 -235 -34 -47 -95 -125 -137 -173
-63 -75 -85 -93 -140 -118 -64 -29 -121 -73 -121 -93 0 -5 -27 -37 -59 -71
-43 -44 -61 -72 -67 -100 -14 -75 7 -293 32 -323 6 -8 52 24 101 68 28 26 77
62 108 79 48 27 63 31 99 26 43 -7 43 -7 49 -55 7 -60 35 -115 77 -155 30 -28
33 -29 44 -11 6 10 23 38 38 62 15 24 45 55 67 68 22 14 45 36 52 48 21 41 52
68 77 68 44 0 91 -39 121 -99 26 -51 35 -59 86 -80 31 -13 59 -21 62 -17 3 3
8 28 11 57 4 46 8 53 44 75 42 27 75 73 85 117 8 37 45 55 130 64 l68 8 0 118
c0 118 0 119 29 143 15 14 35 24 44 22 9 -2 25 -26 36 -54 12 -28 38 -77 60
-108 66 -97 261 -267 394 -345 123 -72 482 -192 702 -234 118 -23 474 -75 600
-87 58 -6 123 -15 144 -20 22 -5 42 -7 46 -5 3 2 55 -3 115 -11 61 -7 174 -16
252 -20 l142 -7 136 -144 c155 -164 190 -223 226 -378 43 -184 53 -198 194
-256 45 -19 97 -49 121 -71 28 -26 56 -41 86 -46 56 -11 77 -23 92 -53 6 -13
34 -39 61 -57 28 -17 54 -41 59 -52 5 -11 31 -34 58 -50 27 -17 53 -42 59 -56
5 -15 20 -39 32 -53 12 -15 31 -46 41 -69 10 -23 25 -42 32 -42 21 0 83 81
103 136 23 61 46 249 38 315 -6 45 -5 46 34 69 30 16 49 20 72 15 18 -3 50 -9
72 -12 36 -5 44 -11 77 -64 43 -67 87 -99 139 -99 48 0 78 -30 122 -117 48
-94 58 -102 100 -73 59 40 97 114 97 185 0 56 -19 100 -65 149 -34 36 -44 54
-39 68 3 11 7 45 7 76 l2 57 90 43 90 43 60 -21 c80 -28 161 -35 223 -21 54
13 151 1 203 -25 38 -19 54 3 54 77 0 48 -5 64 -30 101 -17 23 -50 53 -72 66
-29 16 -45 33 -53 57 -6 19 -27 48 -46 65 -31 26 -42 30 -97 30 -68 0 -73 2
-105 44 -34 44 -81 75 -140 92 -49 15 -58 14 -167 -10 -212 -48 -252 -38 -387
93 -54 52 -98 97 -98 101 0 4 27 10 59 14 179 20 668 142 883 220 220 80 625
264 733 334 231 148 422 347 518 537 38 76 87 242 96 330 6 48 5 118 -1 183
-8 76 -7 139 2 234 l13 130 27 -5 c15 -3 84 -9 154 -13 l127 -7 13 -32 c20
-48 69 -98 146 -151 39 -26 70 -53 70 -60 0 -6 18 -48 40 -91 87 -175 276
-317 595 -448 83 -34 150 -67 149 -73 -1 -7 -2 -34 -2 -60 -2 -47 -3 -49 -40
-60 -51 -15 -73 -41 -98 -114 -20 -60 -21 -61 -67 -73 -61 -15 -82 -36 -97
-92 -15 -62 -6 -113 35 -198 19 -38 36 -82 40 -97 7 -37 58 -93 112 -125 55
-32 67 -22 58 50 -8 65 4 82 78 106 140 47 251 62 497 68 263 6 433 -8 635
-53 100 -22 137 -37 275 -108 96 -50 229 -60 338 -26 114 36 197 23 260 -38
35 -35 119 -57 175 -47 41 8 88 -13 164 -74 49 -38 51 -39 57 -18 3 12 6 48 6
80 0 31 4 57 9 57 5 0 36 -20 70 -45 34 -25 65 -45 71 -45 16 0 32 82 26 132
-6 45 -5 48 19 54 29 7 132 -28 170 -58 l25 -19 0 61 c0 33 -6 76 -14 95 -15
35 -67 75 -98 75 -9 0 -26 14 -38 30 -12 17 -52 55 -89 84 -66 53 -119 76
-173 76 -20 0 -34 12 -62 50 -69 96 -114 102 -260 31 -77 -38 -93 -42 -139
-38 -62 6 -266 46 -287 57 -9 4 -68 24 -131 43 -132 42 -261 103 -509 243 -96
55 -208 112 -248 128 -60 24 -84 42 -136 96 -74 79 -158 188 -246 320 -203
304 -318 425 -518 543 -72 43 -146 83 -164 89 -49 16 -56 25 -64 76 -13 97
-117 264 -350 567 -80 105 -167 222 -193 261 -47 69 -48 74 -55 167 -4 52 -16
130 -27 174 -12 43 -22 102 -22 131 l-2 54 260 2 c291 3 363 13 541 71 281 92
646 327 790 508 225 282 304 552 260 887 -39 293 -130 527 -333 851 -75 120
-94 158 -112 228 -22 89 -50 154 -66 155 -5 1 -14 -23 -18 -51 -9 -57 -15 -63
-39 -35 -29 32 -39 63 -52 151 -8 49 -24 110 -36 135 -29 56 -79 118 -90 111
-5 -3 -14 -39 -21 -80 -7 -41 -14 -73 -15 -72 -2 1 -8 34 -14 72 -6 39 -26
103 -46 145 -38 80 -100 164 -115 155 -5 -4 -9 -27 -9 -53 0 -26 -4 -53 -9
-61 -16 -24 -31 23 -37 111 -3 46 -10 108 -15 139 -12 63 1 227 26 324 46 176
188 327 397 424 127 59 209 76 373 76 162 0 217 -11 331 -66 96 -47 169 -115
226 -213 86 -146 114 -258 105 -420 -3 -55 -7 -108 -8 -116 -3 -11 4 -15 25
-15 27 0 31 5 44 50 21 75 20 284 -2 365 -48 176 -117 300 -224 402 -118 112
-256 199 -387 242 -36 11 -56 25 -68 46 -21 35 -22 36 -80 11 l-45 -19 -23 24
c-27 29 -50 31 -73 5 -28 -31 -56 -33 -68 -5 -15 32 -38 30 -73 -6 -36 -38
-50 -38 -64 0 -5 17 -16 30 -23 30 -7 0 -36 -23 -64 -51 l-52 -52 -15 30 c-32
62 -43 60 -78 -9 -41 -82 -50 -93 -60 -76 -5 7 -9 27 -9 43 0 17 -4 36 -9 44
-11 18 -47 -30 -96 -129 -20 -41 -47 -85 -58 -98 l-22 -23 -10 47 c-5 26 -15
49 -21 51 -15 5 -72 -81 -83 -126 -5 -20 -13 -76 -16 -126 -6 -81 -12 -100
-56 -190 -71 -144 -100 -267 -102 -430 -2 -141 12 -238 50 -355 58 -182 149
-318 393 -590 136 -152 268 -316 326 -404 70 -106 103 -277 85 -440 -6 -52
-11 -98 -11 -101 0 -3 -5 -3 -11 0 -6 4 -10 26 -9 49 4 89 4 89 -30 71 -41
-21 -86 -86 -99 -143 -6 -26 -15 -95 -21 -153 -14 -140 -33 -204 -76 -247 -19
-19 -38 -30 -45 -26 -15 9 -5 68 22 128 38 87 8 95 -122 35 -56 -26 -79 -45
-141 -117 -41 -48 -97 -115 -123 -150 -56 -72 -88 -81 -93 -25 -4 39 17 82 64
128 19 19 32 40 29 45 -3 6 -36 10 -73 10 -85 0 -170 -30 -302 -104 -142 -81
-230 -87 -230 -16 0 46 45 89 139 132 l84 39 -22 22 c-20 20 -32 22 -134 22
-110 0 -114 -1 -229 -48 -112 -45 -119 -47 -147 -33 -34 18 -41 33 -41 90 0
60 42 107 142 157 45 23 78 45 76 52 -3 7 -27 20 -54 30 -88 31 -187 15 -305
-50 -9 -6 -64 106 -88 177 -26 80 -167 346 -256 483 -53 80 -103 138 -238 272
-209 206 -336 301 -697 517 -140 84 -285 171 -321 194 -36 23 -75 45 -87 48
-12 4 -50 25 -85 46 -34 21 -132 80 -217 131 -239 144 -701 456 -845 572 -216
173 -371 329 -485 489 -108 151 -181 287 -205 383 -17 68 -20 249 -5 341 5 33
16 121 24 195 17 157 38 220 107 324 72 107 121 143 263 193 130 46 182 51
275 27 31 -8 113 -16 182 -18 122 -4 127 -5 172 -36 130 -89 202 -206 261
-427 54 -200 82 -264 241 -539 118 -203 146 -260 156 -310 5 -22 3 -111 -3
-201 -13 -193 -4 -270 46 -379 46 -100 143 -266 242 -418 104 -158 115 -164
299 -177 68 -5 161 -19 207 -31 129 -34 213 -31 318 13 75 32 381 136 499 169
51 15 131 84 166 143 26 44 47 124 38 140 -4 5 -7 82 -7 170 -1 111 -6 168
-14 184 -17 29 -33 24 -45 -14 -20 -63 -69 -174 -77 -174 -5 0 -23 25 -40 55
-35 61 -77 115 -90 115 -5 0 -18 -17 -30 -37 -51 -86 -106 -163 -117 -163 -41
-1 -218 253 -192 274 2 2 81 39 174 84 192 92 258 112 362 112 84 0 112 -12
297 -124 101 -61 126 -74 126 -61 0 10 -94 151 -128 193 -32 39 -33 42 -13 42
12 0 102 -31 198 -70 97 -38 178 -68 180 -66 8 8 -126 121 -209 176 -110 74
-181 101 -285 107 -147 10 -308 -29 -563 -137 -125 -52 -196 -64 -219 -36 -6
8 -16 54 -22 102 -13 110 -26 424 -18 424 3 0 11 -12 18 -27 16 -35 23 -24 47
80 10 42 21 77 24 77 9 0 54 -172 75 -285 22 -116 23 -121 36 -108 14 14 85
276 94 346 4 31 11 57 15 57 19 0 42 -44 51 -101 5 -35 16 -70 24 -78 11 -11
16 -6 34 34 12 26 21 51 21 56 0 13 3 12 109 -22 126 -40 156 -34 208 48 l36
56 15 -28 c14 -28 13 -103 -5 -220 -5 -39 -5 -40 14 -22 11 10 34 48 51 85 54
116 64 172 67 347 2 115 7 176 19 215 11 36 15 73 12 105 -6 56 -34 145 -45
145 -15 0 -33 56 -41 125 -5 39 -14 83 -21 97 -20 46 -73 57 -155 33 -17 -5
-35 5 -78 44 -66 60 -131 94 -246 132 l-85 27 -7 67 c-3 36 -15 83 -26 103
-11 21 -23 52 -26 69 -4 18 -26 53 -48 78 l-41 46 53 167 c29 92 84 257 122
367 90 260 87 245 52 245 -25 -1 -37 -13 -94 -96 -79 -117 -497 -642 -512
-643 -14 -2 -150 222 -229 375 -104 203 -154 358 -195 598 -83 495 -232 833
-474 1077 -111 113 -225 191 -372 254 -117 51 -108 48 -108 35z m-190 -1624
c138 -14 406 -99 560 -177 93 -47 422 -260 428 -277 2 -7 -5 -12 -16 -12 -18
0 -32 -18 -32 -41 0 -14 34 -11 56 6 10 8 22 15 25 15 4 0 57 -55 119 -122
104 -115 190 -227 190 -250 0 -16 -51 0 -110 36 -96 58 -135 66 -322 66 -155
0 -173 2 -235 25 -120 46 -392 211 -518 315 -211 175 -332 260 -454 320 -143
71 -151 64 -65 -57 65 -91 125 -205 147 -283 34 -115 161 -303 338 -500 127
-140 127 -141 173 -266 31 -84 50 -117 115 -200 44 -55 97 -113 120 -128 50
-35 137 -48 147 -23 10 27 -12 55 -39 50 -55 -11 -176 98 -246 221 -27 48 -53
108 -43 103 96 -57 226 -127 232 -127 5 0 24 -18 41 -40 50 -62 98 -47 57 18
-21 34 -88 81 -188 132 -50 26 -99 67 -211 179 -80 80 -176 187 -214 236 -38
50 -83 106 -101 126 -47 54 -82 119 -120 221 -19 51 -54 129 -79 175 -24 46
-40 83 -36 83 18 0 179 -116 330 -237 88 -72 198 -153 244 -180 45 -27 128
-78 185 -112 117 -72 214 -109 307 -118 36 -3 65 -8 65 -10 0 -2 -6 -12 -12
-23 -10 -15 -10 -22 -1 -31 9 -9 21 -4 49 21 60 52 97 64 158 49 71 -16 182
-69 239 -113 39 -30 51 -35 63 -25 8 6 14 20 14 30 0 14 7 19 28 19 38 0 51
-11 67 -55 12 -37 16 -40 70 -50 31 -7 61 -18 66 -26 5 -8 7 -41 3 -74 -5 -50
-3 -63 11 -75 15 -12 19 -12 31 5 8 10 14 25 14 32 0 7 3 13 6 13 19 0 312
-165 362 -203 132 -102 255 -259 339 -433 45 -92 59 -106 91 -86 10 7 10 16
-2 48 -53 152 -175 322 -380 532 -136 139 -137 138 33 97 123 -30 139 -38 86
-45 -29 -4 -41 -10 -43 -24 -6 -29 12 -34 113 -28 77 4 99 2 120 -12 35 -23
31 -36 -9 -29 -29 4 -35 2 -41 -17 -4 -12 -3 -26 2 -31 14 -14 216 -23 249
-12 36 12 54 7 54 -16 0 -14 -6 -17 -25 -13 -17 3 -27 -1 -31 -12 -9 -24 6
-52 66 -121 55 -63 89 -125 90 -161 0 -12 -11 -33 -25 -48 -22 -24 -24 -32
-19 -84 6 -53 2 -65 -42 -167 -27 -60 -71 -144 -99 -185 -47 -71 -52 -75 -84
-72 -35 3 -140 42 -233 87 -29 13 -89 57 -133 96 -88 79 -151 114 -172 97 -25
-20 -13 -39 37 -60 28 -11 50 -24 50 -28 0 -9 -101 -20 -177 -20 -69 0 -193
33 -252 68 -25 14 -80 62 -123 107 -94 99 -93 98 -204 199 -72 65 -102 86
-139 95 -43 11 -52 10 -93 -11 -67 -33 -130 -147 -103 -187 18 -27 57 3 88 66
26 53 31 58 64 61 27 2 44 -3 65 -21 l28 -24 -39 -7 c-21 -4 -61 -19 -87 -32
-58 -29 -58 -31 -24 -200 69 -340 91 -575 82 -909 -10 -382 16 -548 98 -629
58 -59 148 -85 336 -97 80 -5 184 -16 231 -24 123 -21 167 -19 227 11 63 31
124 97 221 237 40 59 77 107 81 107 13 0 57 -82 69 -130 9 -35 25 -57 69 -97
l57 -52 -24 -46 c-33 -63 -81 -102 -149 -120 -31 -9 -151 -47 -267 -85 -115
-38 -241 -78 -279 -89 l-69 -20 -151 25 c-83 14 -202 32 -264 39 -130 17 -117
7 -217 156 -56 82 -111 181 -228 403 -32 61 -34 183 -7 387 l23 171 -43 268
c-25 148 -47 267 -50 264 -3 -3 -7 -93 -10 -199 l-5 -194 -107 187 c-192 335
-225 423 -308 826 -11 55 -22 102 -25 104 -3 3 -16 0 -29 -6 -23 -10 -29 -5
-125 123 -95 126 -100 135 -90 163 7 22 15 29 29 25 12 -3 22 3 30 19 7 12 22
31 34 41 l21 17 -24 20 c-30 26 -44 22 -55 -18 -7 -23 -17 -32 -35 -34 -21 -2
-27 -9 -29 -36 l-3 -33 -68 63 c-86 81 -172 131 -291 169 -231 75 -602 40
-892 -83 -115 -49 -391 -226 -483 -309 -63 -58 -151 -185 -194 -280 -171 -379
-161 -871 28 -1354 39 -99 71 -161 137 -260 233 -350 498 -664 835 -989 188
-181 295 -267 596 -478 324 -227 410 -299 585 -481 202 -212 258 -276 324
-373 92 -138 135 -270 188 -584 102 -607 99 -559 60 -833 -25 -179 -31 -279
-24 -462 4 -121 -11 -167 -119 -360 -92 -165 -115 -228 -136 -365 -24 -168
-50 -277 -79 -343 -14 -32 -72 -122 -129 -200 -188 -258 -320 -463 -481 -750
-39 -68 -77 -108 -164 -173 -42 -31 -100 -79 -128 -106 l-51 -50 -22 35 c-11
19 -61 71 -111 116 -92 85 -110 115 -110 187 0 27 9 38 70 82 101 74 189 201
234 337 15 47 20 53 75 78 121 55 211 173 246 318 25 106 19 169 -16 169 -20
0 -25 -13 -33 -101 -7 -73 -38 -158 -76 -214 -35 -51 -103 -105 -132 -105 -17
0 -18 5 -12 48 4 35 2 51 -8 60 -24 19 -47 -7 -58 -66 -15 -83 -68 -231 -105
-298 -40 -72 -110 -151 -155 -178 -32 -18 -32 -18 -26 2 4 11 2 76 -3 145 -18
212 -73 340 -184 428 -67 54 -117 76 -128 57 -15 -23 -6 -35 60 -80 148 -99
191 -231 191 -582 0 -210 4 -222 130 -337 104 -95 130 -139 130 -223 0 -58
-31 -231 -51 -282 l-10 -28 -57 57 c-65 64 -148 107 -208 107 -47 0 -54 -4
-47 -30 4 -13 18 -22 42 -26 58 -10 136 -51 181 -95 41 -40 90 -127 90 -161 0
-38 50 -44 172 -22 47 8 108 -25 157 -86 52 -65 107 -100 156 -100 41 0 43 -2
84 -65 51 -78 93 -112 111 -90 10 12 5 23 -27 62 -22 27 -46 58 -52 71 -11 21
-11 23 8 20 19 -3 251 -260 251 -279 0 -5 -11 -2 -25 7 -27 18 -55 13 -55 -10
0 -8 36 -40 81 -71 85 -60 202 -170 311 -295 57 -64 68 -73 81 -61 12 9 14 19
6 37 -5 14 -9 27 -9 30 0 2 24 1 53 -2 36 -4 72 -1 108 9 30 9 82 20 116 26
90 14 126 1 200 -73 l62 -62 68 4 c60 3 71 1 92 -19 l24 -22 -39 -20 c-56 -29
-65 -44 -60 -102 2 -27 7 -58 11 -67 6 -15 1 -18 -28 -18 -96 0 -214 42 -280
99 -20 18 -41 30 -47 26 -15 -9 -12 -41 6 -55 38 -33 36 -48 -10 -75 -59 -35
-106 -48 -122 -34 -8 6 -35 16 -61 23 l-48 12 -5 57 c-8 92 -70 137 -189 137
-61 0 -136 34 -225 104 -33 25 -63 46 -67 46 -4 0 -10 -8 -13 -17 -7 -18 46
-73 131 -133 59 -42 86 -51 186 -59 112 -10 127 -22 127 -103 0 -83 10 -98 68
-98 26 0 52 -4 58 -8 21 -14 34 -51 34 -99 0 -64 -10 -77 -48 -68 -18 3 -40 1
-52 -5 -24 -13 -50 -67 -50 -105 0 -33 -38 -34 -67 -3 -39 43 -75 129 -70 164
11 65 -44 69 -57 4 -5 -28 -9 -30 -51 -30 -49 0 -85 25 -85 59 0 33 -11 51
-31 51 -26 0 -35 -26 -21 -63 10 -26 9 -34 -5 -49 -26 -29 -44 -22 -100 38
-43 45 -53 63 -53 90 0 86 -57 144 -140 144 -71 0 -160 59 -205 134 -9 15 -13
15 -28 3 -17 -12 -18 -16 -4 -48 7 -19 33 -51 56 -72 l43 -39 -23 -24 c-21
-22 -21 -26 -7 -40 13 -14 19 -13 54 5 108 55 204 26 204 -61 0 -11 -6 -26
-14 -32 -8 -6 -16 -20 -18 -31 -2 -15 6 -22 36 -33 22 -7 46 -18 55 -25 23
-19 49 -87 56 -151 7 -51 6 -58 -8 -53 -9 3 -35 11 -58 17 -37 10 -45 9 -68
-7 -14 -11 -37 -42 -50 -71 -14 -29 -29 -52 -33 -52 -5 0 -14 12 -20 26 -6 14
-40 43 -74 65 -67 44 -79 68 -64 136 6 23 4 36 -6 44 -19 16 -40 -2 -48 -41
-7 -37 -23 -38 -94 -5 -56 26 -63 37 -82 128 -9 46 -21 67 -59 109 -42 46 -50
51 -65 39 -24 -20 -21 -29 29 -82 29 -31 45 -57 45 -74 0 -33 -13 -32 -89 6
-73 36 -78 45 -114 202 -41 173 -68 220 -210 366 -175 179 -279 315 -349 456
-28 55 -48 153 -48 232 0 58 -5 66 -31 50 -13 -8 -19 -24 -20 -47 0 -30 -4
-23 -27 45 -15 44 -40 102 -55 128 -28 48 -133 158 -201 211 -28 22 -52 59
-92 142 -29 62 -88 170 -129 241 -95 160 -139 251 -161 334 -21 78 -24 230 -5
316 11 50 11 66 1 78 -31 37 -55 3 -66 -94 -3 -34 -10 -61 -14 -61 -11 0 -109
225 -126 290 -8 30 -14 87 -14 128 0 59 5 84 27 130 34 69 167 208 209 218 68
15 90 49 58 85 -14 16 -14 21 10 56 30 43 33 68 10 77 -23 9 -35 -4 -78 -81
-20 -37 -46 -79 -57 -93 l-20 -25 7 45 c9 60 123 411 180 552 55 137 138 296
207 397 150 219 377 372 594 402 102 13 113 17 113 38 0 33 -21 39 -100 30
-238 -28 -396 -122 -582 -349 -194 -236 -335 -551 -458 -1025 -40 -151 -45
-164 -95 -231 -125 -166 -115 -324 37 -623 43 -85 78 -161 78 -168 0 -26 64
-210 100 -288 20 -44 92 -176 159 -293 68 -117 121 -216 118 -219 -23 -22
-526 -29 -736 -10 -175 17 -468 96 -555 151 -28 18 -136 79 -241 135 -163 88
-300 172 -368 225 -28 22 -40 175 -33 426 16 533 44 699 171 1015 88 219 168
369 442 834 114 192 141 246 132 257 -6 8 -17 14 -23 14 -13 0 -86 -109 -195
-288 -35 -56 -65 -102 -67 -102 -2 0 -3 18 -2 40 2 48 -9 61 -39 49 -19 -7
-23 -16 -24 -56 l0 -48 -15 54 c-21 80 -72 168 -134 234 -50 53 -57 57 -74 44
-18 -13 -17 -17 29 -73 58 -71 109 -176 125 -262 19 -92 9 -200 -22 -253 -40
-69 -137 -283 -183 -406 -114 -300 -152 -487 -176 -883 -14 -237 -6 -665 15
-796 16 -94 48 -210 72 -255 12 -25 11 -27 -24 -50 -58 -38 -82 -96 -82 -201
l0 -87 -37 -6 c-21 -3 -55 -9 -75 -14 -36 -8 -39 -6 -58 25 -20 36 -27 39 -49
25 -12 -8 -11 -15 3 -50 20 -52 21 -114 1 -131 -13 -10 -15 -9 -15 12 0 33
-32 73 -67 85 -42 14 -88 -2 -122 -44 l-31 -38 -2 35 c-3 83 15 149 58 211 43
63 99 71 187 27 46 -23 70 -17 65 14 -3 22 -9 25 -155 73 -2 1 7 25 18 55 24
63 22 95 -5 95 -15 0 -24 -14 -38 -57 -13 -38 -37 -77 -77 -122 -63 -71 -84
-121 -103 -243 l-12 -73 -35 0 c-30 0 -39 6 -54 31 -24 43 -43 25 -49 -47 -3
-33 -11 -62 -21 -72 -16 -15 -17 -15 -17 2 0 10 -7 33 -15 51 -27 56 -93 71
-154 34 -38 -23 -51 -15 -51 32 0 30 51 134 81 164 19 19 20 19 90 1 60 -15
73 -16 80 -5 14 22 11 29 -27 51 l-35 21 33 28 c18 15 36 28 41 29 16 0 65 91
60 110 -8 30 -49 26 -57 -5 -10 -38 -77 -100 -147 -136 -93 -47 -130 -99 -155
-222 -17 -82 -24 -95 -24 -46 0 19 -5 40 -11 46 -19 19 -39 3 -39 -29 0 -35
-35 -98 -55 -98 -8 0 -16 17 -20 40 -8 48 -26 60 -94 60 l-50 0 10 29 c6 17
35 51 65 76 30 26 61 60 69 75 28 54 77 48 90 -11 8 -34 16 -41 34 -30 8 6 13
29 13 62 0 52 3 56 57 114 96 104 136 156 269 355 21 31 57 74 81 95 78 70
139 152 156 208 9 30 16 89 16 142 0 113 11 183 50 320 25 87 28 109 17 116
-23 15 -45 10 -51 -12 -8 -31 -23 -16 -48 49 -20 50 -23 76 -23 207 -1 83 3
189 8 238 9 85 8 87 -12 87 -25 0 -42 -27 -42 -67 0 -15 -5 -35 -10 -43 -14
-21 -38 11 -99 135 -56 113 -85 207 -106 345 -37 240 4 588 84 703 35 52 40
91 12 106 -16 9 -23 4 -45 -29 -14 -22 -28 -40 -30 -40 -6 0 22 136 48 229 54
194 137 343 257 462 94 93 140 114 254 114 134 0 179 -24 322 -173 62 -64 113
-120 113 -124 0 -4 -11 -3 -24 4 -33 14 -56 4 -56 -25 0 -19 8 -26 43 -37 92
-27 175 -87 218 -156 21 -34 22 -34 41 -17 11 10 17 25 14 37 -3 13 10 36 45
75 69 77 84 105 187 346 102 241 143 324 220 450 190 313 450 564 727 702 85
43 207 89 255 98 15 3 57 12 92 21 74 20 185 22 390 10 l148 -9 113 -116 c103
-105 115 -121 121 -161 3 -25 2 -61 -4 -80 -8 -29 -7 -37 7 -48 25 -18 37 -10
47 31 5 20 12 37 16 37 9 0 72 -77 124 -154 93 -136 152 -275 166 -389 9 -77
21 -98 48 -80 13 8 16 22 14 64 -7 121 -72 286 -172 435 -77 113 -255 331
-319 389 -30 28 -66 66 -81 87 -15 20 -60 63 -101 96 -88 71 -350 346 -487
510 -53 64 -121 143 -150 176 -88 99 -221 279 -402 546 -233 343 -352 585
-444 908 -52 179 -67 287 -73 497 -9 324 25 631 94 850 19 61 38 126 42 145 9
40 87 222 137 322 123 244 240 397 434 569 242 214 316 266 570 393 294 147
443 196 660 220 50 5 634 -1 700 -8z m1991 -487 c-43 -129 -82 -242 -86 -251
-4 -10 -25 -23 -46 -28 -51 -14 -109 -65 -109 -96 0 -34 25 -30 71 11 48 43
94 47 136 11 24 -20 26 -27 16 -48 -18 -41 -64 -88 -106 -109 l-40 -21 -54 54
c-64 63 -133 150 -133 168 0 9 9 11 30 7 41 -9 60 23 31 52 -19 19 -17 21 87
152 158 201 274 341 278 336 2 -2 -32 -109 -75 -238z m-454 -1730 c8 -8 20 2
43 35 19 25 35 44 38 41 3 -2 14 -32 26 -66 11 -33 25 -62 31 -62 5 -1 24 20
42 47 29 45 32 47 37 25 3 -13 8 -96 11 -184 6 -165 22 -375 31 -410 5 -20 5
-20 -10 -1 -9 11 -16 28 -16 38 0 46 -89 171 -150 212 -22 14 -62 31 -89 37
-37 8 -51 16 -56 32 -4 12 -9 95 -12 185 -6 161 -5 163 18 188 l24 25 10 -65
c6 -36 16 -71 22 -77z m533 14 c0 -58 -22 -171 -39 -201 -7 -12 -12 -6 -20 28
-7 25 -23 82 -37 128 -14 45 -22 87 -19 92 3 6 31 10 61 10 l54 0 0 -57z
m2587 -654 c151 -20 295 -87 403 -189 52 -48 41 -53 -21 -9 -14 10 -66 30
-115 45 -73 22 -115 27 -234 31 -158 5 -273 -12 -393 -57 -88 -33 -202 -114
-298 -210 -111 -111 -149 -185 -184 -359 -14 -68 -36 -147 -50 -175 l-24 -51
6 150 c5 134 3 156 -15 210 l-21 60 20 60 c38 113 119 214 256 322 108 84 241
138 403 163 41 7 82 13 90 15 34 6 103 4 177 -6z m-2839 -229 c82 -17 91 -35
67 -135 -28 -114 -46 -165 -59 -165 -12 0 -66 51 -66 63 0 3 -24 59 -54 124
-29 65 -56 130 -60 145 l-6 27 57 -24 c32 -13 86 -29 121 -35z m156 -192 c15
-24 51 -64 79 -90 44 -40 50 -50 41 -65 -9 -14 -25 -18 -70 -18 l-59 0 -6 45
c-12 89 -20 170 -16 170 2 0 17 -19 31 -42z m1663 -317 c1 -78 9 -138 27 -213
55 -227 152 -403 410 -736 132 -170 179 -246 281 -452 67 -137 72 -151 84
-250 7 -58 11 -127 9 -155 l-3 -50 -18 70 c-49 187 -190 398 -460 685 -205
218 -319 403 -371 604 -35 133 -41 327 -14 465 9 49 42 141 51 141 1 0 3 -49
4 -109z m-6048 -533 c50 -93 113 -173 122 -156 4 8 11 50 15 94 4 43 11 87 16
97 9 18 42 21 121 11 l46 -7 136 -179 c75 -99 135 -181 133 -182 -1 -2 -35
-13 -75 -25 -83 -27 -150 -72 -159 -108 -9 -33 3 -39 95 -47 155 -14 346 -81
430 -152 83 -70 81 -178 -4 -200 -50 -12 -190 16 -302 63 -153 63 -214 80
-328 93 -118 13 -311 13 -336 0 -10 -6 -26 -10 -35 -10 -23 0 -174 -70 -174
-81 0 -10 67 -33 185 -64 109 -28 225 -77 251 -106 17 -18 14 -19 -67 -19 -82
0 -211 -10 -377 -31 -158 -19 -339 -92 -487 -197 -146 -103 -341 -307 -388
-406 -89 -187 -104 -398 -43 -591 27 -85 27 -84 -55 -57 -78 26 -204 16 -282
-22 -110 -53 -205 -169 -314 -380 -55 -108 -56 -109 -69 -83 -31 59 -45 157
-54 392 -9 237 -10 242 -54 417 -44 174 -45 180 -35 265 24 224 93 498 160
643 69 146 173 309 340 530 115 151 199 220 364 296 103 48 326 122 430 144
50 10 159 35 244 55 199 47 304 63 421 64 l95 1 34 -62z m-2163 -685 c-22 -77
-33 -284 -27 -558 2 -144 -2 -185 -19 -185 -4 0 -14 24 -22 53 -9 38 -12 113
-10 275 2 154 -1 222 -8 222 -27 0 -109 -230 -131 -365 -14 -90 -19 -538 -6
-622 l8 -53 -34 0 c-48 0 -69 -26 -48 -59 8 -12 12 -12 25 -2 12 10 20 9 44
-3 33 -17 29 -5 96 -281 83 -338 157 -529 256 -659 l50 -67 -11 -52 c-7 -32
-9 -90 -5 -153 5 -76 2 -125 -11 -195 -25 -140 -23 -402 5 -534 43 -202 119
-378 202 -470 l49 -54 -6 -73 c-11 -143 24 -297 82 -358 l23 -25 -26 -102
c-20 -75 -31 -103 -42 -103 -33 0 -309 212 -504 388 -144 130 -330 330 -410
441 -191 266 -316 585 -372 946 -31 205 -22 615 22 910 67 456 281 983 599
1480 103 160 251 326 231 258z m9148 -250 c87 -146 171 -356 227 -573 37 -139
48 -304 30 -431 -34 -231 -162 -475 -337 -639 -126 -118 -430 -306 -601 -370
-157 -60 -320 -82 -634 -86 l-247 -4 -21 52 c-32 78 -86 160 -206 308 l-107
133 2 176 c2 230 3 261 11 261 3 0 75 -38 160 -84 169 -91 229 -114 391 -149
136 -30 343 -35 464 -12 305 58 555 236 674 480 102 208 147 406 136 603 -3
64 -10 149 -14 187 -5 39 -6 111 -4 162 5 105 4 106 76 -14z m-6826 -125 c13
-13 16 -47 6 -73 -4 -9 -25 -26 -48 -38 -39 -21 -53 -22 -266 -22 -258 -1
-304 -9 -389 -74 -79 -59 -171 -177 -171 -219 0 -21 19 -21 120 2 36 9 106 15
157 16 84 0 93 -2 107 -22 26 -36 19 -65 -26 -114 -41 -44 -75 -64 -308 -171
-87 -41 -157 -99 -187 -157 -15 -29 -31 -146 -20 -146 3 0 43 18 88 40 96 46
156 53 189 20 36 -36 24 -82 -26 -106 -72 -34 -160 -145 -179 -226 -6 -25 -4
-28 18 -28 13 0 41 7 60 15 53 22 55 19 16 -22 -48 -51 -76 -93 -85 -128 l-7
-28 44 8 c111 20 122 4 59 -90 -69 -100 -67 -100 -172 2 -125 122 -263 283
-293 344 -63 123 -91 345 -61 473 35 149 140 296 321 448 39 33 86 73 105 90
82 70 244 140 400 172 122 24 157 28 330 36 91 3 174 7 186 8 11 1 25 -3 32
-10z m5019 -1695 c77 -99 138 -200 174 -285 35 -82 36 -98 5 -69 -13 13 -32
21 -42 19 -33 -6 -27 -35 14 -72 57 -52 93 -139 100 -242 l5 -82 -56 18 c-38
13 -78 18 -119 16 -60 -3 -63 -5 -66 -30 -2 -14 0 -26 5 -26 180 -4 227 -21
262 -94 22 -48 82 -129 266 -361 139 -176 221 -298 276 -413 42 -87 43 -97 34
-202 -6 -57 -3 -71 18 -110 15 -29 30 -45 43 -45 27 0 29 36 5 76 -12 19 -21
42 -21 53 0 30 61 14 154 -40 242 -140 341 -238 547 -544 110 -163 222 -303
295 -366 34 -29 100 -70 154 -96 52 -24 142 -75 200 -112 208 -134 472 -247
739 -317 64 -16 122 -32 129 -34 8 -3 1 -15 -19 -33 -28 -25 -30 -31 -20 -50
12 -22 12 -22 68 18 43 30 66 40 96 40 77 0 164 -65 190 -144 l14 -41 64 -3
c50 -2 68 -7 82 -23 27 -33 21 -48 -23 -55 -44 -7 -100 -60 -100 -94 0 -22
-31 -34 -62 -25 -13 4 -47 25 -76 47 -100 74 -162 83 -307 43 -104 -29 -136
-30 -225 -7 -90 24 -152 64 -245 159 -96 98 -116 110 -134 82 -11 -18 -7 -25
34 -61 25 -22 44 -42 42 -45 -3 -2 -67 7 -143 21 -197 36 -331 47 -553 47
l-194 0 24 25 c23 25 24 26 5 40 -17 12 -23 10 -63 -27 -48 -44 -125 -83 -185
-93 -35 -6 -38 -5 -38 17 0 13 -6 32 -14 42 -12 16 -16 17 -30 6 -9 -7 -16
-25 -16 -39 0 -24 -25 -62 -41 -62 -4 0 -10 22 -14 49 -9 65 -41 101 -90 101
-41 0 -95 -24 -95 -43 -1 -28 -30 30 -30 60 0 42 28 70 77 78 58 9 65 16 88
84 42 128 92 142 207 59 15 -10 21 -10 35 5 16 16 15 18 -11 46 -16 16 -41 35
-57 41 -36 15 -39 54 -8 117 17 35 27 44 55 49 19 3 51 4 71 1 38 -7 63 5 63
29 0 40 -112 49 -179 14 l-43 -21 -122 51 c-370 158 -538 284 -623 465 -25 54
-28 71 -28 167 0 58 -4 110 -8 115 -15 14 -47 -37 -47 -76 0 -58 -12 -68 -48
-42 -54 38 -99 100 -136 186 -20 46 -36 91 -36 99 0 18 -17 21 -40 6 -12 -7
-12 -14 -2 -43 7 -18 12 -38 12 -43 0 -12 -223 -6 -256 6 -24 9 -32 45 -59
245 -9 66 -28 155 -42 198 l-26 78 26 107 c79 323 102 657 73 1062 -24 329
-28 400 -23 400 2 0 31 -35 64 -77z m3561 -3323 l23 -34 -45 -13 c-45 -13 -67
-39 -41 -49 13 -5 36 0 86 21 12 4 18 -1 24 -22 10 -42 47 -85 109 -128 31
-21 56 -42 56 -46 0 -4 -17 -9 -37 -11 -21 -3 -45 -8 -54 -12 -12 -5 -19 1
-28 22 -20 49 -53 72 -110 79 -47 5 -54 9 -71 42 -10 20 -41 58 -68 83 l-50
47 61 31 c79 39 113 37 145 -10z m-2388 -175 c21 -26 -9 -210 -33 -203 -7 2
-22 24 -34 48 -28 53 -30 125 -6 152 20 22 56 23 73 3z m-7922 -127 c19 -19
14 -79 -11 -141 l-23 -57 -26 27 c-49 52 -49 141 0 167 33 19 45 19 60 4z
m-465 -50 c33 -25 31 -69 -5 -127 -18 -30 -37 -54 -43 -54 -19 1 -35 48 -35
105 0 48 4 59 22 72 27 19 39 20 61 4z m5936 -904 c36 -21 71 -74 71 -107 0
-33 -12 -34 -100 -6 -83 26 -103 43 -94 83 3 17 8 34 11 39 8 13 84 7 112 -9z
m-640 -429 c45 -23 79 -71 87 -120 8 -57 1 -86 -32 -125 l-27 -31 -48 67 c-41
55 -79 141 -79 176 0 14 39 48 55 48 9 0 29 -7 44 -15z m-657 -175 c29 -29 30
-34 24 -82 -8 -56 -25 -102 -50 -133 -16 -20 -16 -20 -37 5 -41 50 -79 114
-79 135 0 12 14 41 30 63 37 52 68 55 112 12z"/>
<path d="M6312 11907 c-15 -16 -22 -36 -22 -63 0 -21 -7 -48 -15 -58 -32 -43
-10 -125 44 -163 20 -14 25 -14 38 -1 13 14 11 19 -16 51 -36 40 -40 77 -11
95 22 13 26 42 10 72 -8 15 -5 22 16 37 17 13 23 24 18 36 -9 24 -37 21 -62
-6z"/>
<path d="M5124 11666 c-8 -21 10 -42 44 -51 33 -8 101 -52 125 -82 31 -38 113
-27 105 13 -3 15 -11 18 -35 16 -26 -3 -32 1 -41 27 -8 22 -18 30 -39 33 -22
2 -29 9 -31 31 -3 25 -7 28 -25 22 -28 -9 -46 -9 -74 0 -16 5 -25 3 -29 -9z"/>
<path d="M7890 11566 c-44 -32 -140 -132 -140 -145 0 -3 17 -37 38 -76 56
-102 74 -110 239 -110 l131 0 -39 -33 c-69 -59 -36 -89 36 -32 39 31 55 34
210 35 57 0 60 1 60 25 0 22 -6 25 -64 37 -75 15 -138 49 -176 95 -15 18 -52
52 -82 75 -61 46 -93 87 -93 119 0 50 -58 55 -120 10z"/>
<path d="M7637 11363 c-5 -8 87 -300 97 -310 11 -11 86 20 86 35 0 8 -11 23
-25 34 -14 11 -50 71 -81 134 -52 106 -66 126 -77 107z"/>
<path d="M4880 11232 c0 -40 37 -72 82 -72 23 0 38 -6 42 -15 3 -8 15 -15 26
-15 12 0 32 -12 45 -26 19 -20 30 -25 50 -20 31 8 35 45 5 53 -11 3 -23 16
-26 30 -5 19 -11 23 -28 19 -20 -5 -21 -2 -18 35 l4 40 -37 -26 c-48 -32 -75
-32 -105 0 -30 32 -40 32 -40 -3z"/>
<path d="M8631 10981 c-16 -16 -18 -26 -11 -52 22 -76 58 -96 140 -81 25 5 72
7 105 5 50 -3 101 8 85 19 -42 27 -261 128 -278 128 -12 0 -31 -9 -41 -19z"/>
<path d="M4901 9282 c-6 -11 -11 -40 -11 -64 0 -41 -13 -68 -32 -68 -4 0 -19
19 -34 41 -32 52 -51 41 -33 -19 15 -51 7 -72 -26 -72 -40 0 -29 -34 12 -38
25 -3 35 2 49 22 9 15 26 26 39 26 38 0 59 35 63 106 5 71 -8 101 -27 66z"/>
<path d="M5847 1743 c-16 -15 -4 -44 42 -105 49 -64 122 -128 148 -128 7 0 17
9 23 20 9 16 6 22 -17 34 -33 17 -76 62 -127 134 -35 49 -54 61 -69 45z"/>
<path d="M8382 1663 c-46 -22 -110 -99 -118 -140 -4 -18 -4 -59 -2 -89 15
-178 244 -256 370 -127 142 145 45 374 -158 373 -34 0 -73 -7 -92 -17z m174
-32 c60 -27 96 -80 102 -146 6 -71 -2 -97 -40 -140 -43 -50 -77 -65 -146 -65
-50 0 -65 5 -101 31 -56 40 -85 104 -79 170 13 129 145 204 264 150z"/>
<path d="M8390 1466 c0 -119 1 -126 20 -126 17 0 20 7 20 51 l0 52 41 -6 c50
-7 51 -8 58 -54 5 -29 11 -39 28 -41 20 -3 21 0 16 40 -3 24 -12 50 -19 59
-12 14 -11 18 6 34 25 23 26 56 2 85 -15 19 -31 24 -95 28 l-77 5 0 -127z"/>
</g>
</svg>
